<svg width="683" height="683" viewBox="0 0 683 683" fill="none" xmlns="http://www.w3.org/2000/svg">
<rect width="683" height="683" fill="#F5F5F5"/>
<g clip-path="url(#clip0_0_1)">
<rect width="682.667" height="682.886" transform="matrix(1 0 0 -1 0 682.886)" fill="#F5F5F5"/>
<path d="M316 2.66675C314.533 4.13341 313.067 6.66678 312.667 8.26678C312.267 10.0001 310.4 18.5334 308.533 27.3334C306.667 36.1334 304.8 43.7334 304.267 44.1334C303.733 44.5334 300.133 45.6001 296.133 46.6667L288.933 48.4001L283.467 42.5334C280.4 39.3334 274.267 32.5334 269.733 27.3334C258.933 15.2001 257.867 15.2001 236 28.0001C226.8 33.3334 218.267 38.5334 217.067 39.7334C213.467 42.8001 214.133 48.5334 220 66.0001C222.933 74.6667 225.333 82.8001 225.333 84.0001C225.333 86.6667 215.867 96.0001 213.2 96.0001C212.133 96.0001 204 93.6001 195.333 90.6667C175.467 84.0001 171.867 83.8668 167.6 89.6001C161.467 97.8668 146.667 125.2 146.667 128.133C146.667 130.933 149.333 133.733 172.533 154.8L177.867 159.6L175.6 167.333C174.4 171.6 173.2 175.2 172.933 175.467C172.667 175.733 165.333 177.467 156.533 179.333C147.867 181.2 139.333 182.933 137.6 183.333C132 184.667 129.333 188.8 129.333 196V202.667H107.467C88.8 202.667 85.3333 202.933 83.8667 204.933C82.2667 206.667 81.8667 230.133 81.3333 340.533L80.6667 474L48 474.667C16.9333 475.333 15.0667 475.467 10.4 478.4C7.6 480.133 4.4 483.733 2.8 487.2C0 492.667 0 494.533 0 578.533C0 659.867 0.133333 664.4 2.53333 669.067C5.6 675.2 8.66667 678 15.0667 680.667C19.2 682.4 30.1333 682.667 91.3333 682.667C168.933 682.667 167.867 682.8 174.933 675.2C180.667 668.933 181.333 665.467 181.333 638.533C181.333 613.467 181.333 613.2 178 610C176.267 608.133 173.867 606.667 172.8 606.667C169.6 606.667 164.267 609.467 163.067 611.867C162.533 613.067 161.733 624.8 161.333 638L160.667 662H90.6667H20.6667V578.667V495.333L69.6 494.933L118.4 494.667L118.933 508.4C119.333 521.2 119.6 522.533 123.2 527.2C128.8 534.667 135.733 537.333 149.733 537.333H161.333V555.333C161.333 572.8 161.467 573.6 164.667 576.667C168.8 580.933 174.533 581.067 178.4 576.933C181.2 574 181.333 572.667 181.333 551.067C181.333 538.4 180.667 526.533 180 524.4C178.267 520.133 138.533 479.467 133.067 476.533C130.533 475.333 125.067 474.667 115.333 474.667H101.333V348.667V222.667H115.333H129.333V228.667C129.333 235.2 132.267 239.333 137.6 240.667C143.333 242 172 248 172.533 248C173.2 248 177.333 261.6 177.333 263.733C177.333 264.533 170.8 271.067 162.667 278.133C152.667 287.067 147.867 292.267 147.333 294.933C146.667 298 148.133 301.6 155.467 314.267C166.4 333.467 169.733 338.133 173.2 339.067C174.667 339.333 183.733 337.067 193.6 333.867C203.333 330.667 212.133 328 213.2 328C215.6 328 225.333 337.867 225.333 340.267C225.333 341.333 222.933 349.333 220 358C213.333 377.867 213.2 381.467 219.067 385.733C227.733 392.133 254.4 406.667 257.333 406.667C260.267 406.667 262.667 404.4 284.133 380.8L288.933 375.467L296.667 377.733C300.933 378.933 304.533 380.133 304.8 380.267C305.067 380.533 306.667 388 308.533 396.667C310.4 405.467 312.267 414 312.667 415.733C314 421.067 318.133 424 324.667 424H330.667V449.333V474.667H299.067C268.667 474.667 267.067 474.8 262.133 477.733C258.8 479.6 255.733 482.933 253.733 486.533L250.667 492.4V578.267C250.667 647.333 251.067 664.933 252.533 668.4C254.8 674.133 262.933 681.067 268.267 682C270.667 682.4 305.2 682.667 344.933 682.4L417.067 682L422.267 677.867C432.4 669.733 432 672.933 432 596.4C432 552.133 431.467 526.8 430.667 524.4C428.933 520.133 389.2 479.467 383.733 476.533C381.2 475.333 375.733 474.667 366 474.667H352V449.333V424H358C364.533 424 368.667 421.067 370 415.733C370.4 414 372.267 405.467 374.133 396.667C376 388 377.6 380.533 377.867 380.267C378.133 380.133 381.733 378.933 386 377.733L393.733 375.467L398.533 380.8C420 404.533 422.267 406.667 425.333 406.667C428.4 406.667 454.933 392.133 463.733 385.733C469.467 381.467 469.333 377.867 462.667 358C459.733 349.333 457.333 341.333 457.333 340.267C457.333 337.867 467.067 328 469.467 328C470.533 328 479.333 330.667 489.067 333.867C498.933 337.067 508 339.333 509.467 339.067C512.933 338.133 516.267 333.467 527.2 314.267C534.533 301.6 536 298 535.333 294.933C534.8 292.267 530 287.067 520 278.133C511.867 271.067 505.333 264.533 505.333 263.733C505.333 262 509.333 248 509.867 248C512.267 248 544.267 240.933 547.067 239.867C551.733 237.867 553.333 234.933 553.333 228.133V222.667H567.333H581.333V348.667V474.533L548.4 474.933C516.267 475.333 515.2 475.467 510.933 478.4C502.4 484.533 501.333 488.8 501.333 518C501.333 542.267 501.467 544.133 504 546.667C508 550.667 515.067 550.267 518.533 545.867C521.067 542.533 521.333 540.533 521.333 518.533V494.667H570.667H620V507.333C620 521.2 621.2 524.933 627.6 531.067C632.8 535.867 638.267 537.333 651.733 537.333H662.667L662.4 599.733L662 662H592H522L521.333 622.533C520.667 586 520.533 582.667 518.133 580.133C514.8 576.533 507.6 576.4 504 580C501.467 582.533 501.333 584.4 501.333 623.2C501.333 648.667 501.867 665.2 502.8 667.6C504.667 672.667 510.4 678.667 515.6 680.8C522.4 683.733 660.667 683.467 667.6 680.667C674.267 677.867 677.2 675.067 680.133 668.667C682.4 663.733 682.667 658.533 682.667 595.6C682.667 531.467 682.533 527.6 680.133 522.933C676.667 516.4 636.267 476.4 632 475.467C630.133 475.067 622.667 474.533 615.333 474.267L602 474L601.333 340.533C600.8 230.133 600.4 206.667 598.8 204.933C597.333 202.933 593.867 202.667 575.2 202.667H553.333V196.533C553.333 185.333 552.133 184.667 526.8 179.333C517.6 177.467 510 175.733 509.733 175.467C509.467 175.2 508.267 171.6 507.067 167.333L504.8 159.6L510.133 154.8C512.933 152.133 519.867 146 525.333 141.2C538.267 129.6 538.267 128.8 525.467 106.667C520.133 97.4667 514.8 88.9334 513.733 87.6001C510.533 84.1334 504.8 84.8001 487.333 90.6667C478.667 93.6001 470.533 96.0001 469.333 96.0001C466.667 96.0001 457.333 86.5334 457.333 83.8668C457.333 82.8001 459.733 74.6667 462.667 66.0001C468.533 48.5334 469.2 42.8001 465.733 39.6001C464.4 38.5334 455.867 33.2001 446.667 27.8668C424.667 15.2001 423.733 15.2001 412.933 27.3334C408.4 32.5334 402.267 39.3334 399.2 42.5334L393.733 48.4001L386.533 46.6667C382.533 45.6001 378.933 44.5334 378.4 44.1334C377.867 43.7334 376 36.1334 374.133 27.3334C372.267 18.5334 370.4 10.0001 370 8.26678C369.6 6.66678 368.133 4.13341 366.667 2.66675C364.267 0.266748 362.133 6.10352e-05 341.333 6.10352e-05C320.533 6.10352e-05 318.4 0.266748 316 2.66675ZM356.233 22.9333C356.9 25.7333 358.5 33.3333 359.833 40C362.633 54.8 364.633 59.0667 369.433 60.1334C371.433 60.5334 379.033 62.5334 386.367 64.5334C395.967 67.2001 400.633 67.8667 403.033 67.0667C404.9 66.5334 411.967 59.7333 418.767 52L431.033 38.1334L440.5 43.6C445.567 46.5334 449.567 49.7334 449.3 50.5334C444.633 62.6667 437.967 86.4 438.5 88.2667C439.7 91.7333 461.833 114 465.433 115.467C467.833 116.4 472.633 115.333 485.433 111.2C494.767 108.133 503.033 105.333 503.833 105.067C504.633 104.8 507.833 108.667 510.767 113.867L516.1 123.2L503.967 134.133C497.167 140.133 490.633 146.267 489.3 147.867C486.367 151.067 486.633 156.267 490.767 171.333C492.233 176.8 493.833 182.933 494.233 184.933C495.3 189.733 499.567 191.733 514.367 194.533C521.033 195.867 528.633 197.467 531.433 198.133L536.5 199.467L536.1 210.267L535.7 221.2L518.233 224.8C498.1 228.933 495.433 230.133 494.233 235.067C493.833 237.067 492.233 243.2 490.767 248.667C487.033 262.533 486.633 265.467 487.567 268.933C487.967 270.667 494.633 277.6 502.233 284.4L516.233 296.667L510.767 306.133C507.833 311.2 504.633 315.2 503.833 314.933C491.7 310.267 467.967 303.6 466.1 304.133C462.633 305.333 440.367 327.467 438.9 331.067C437.967 333.467 439.033 338.267 443.167 351.067C446.233 360.4 449.033 368.667 449.3 369.467C449.567 370.267 445.7 373.467 440.5 376.4L431.167 381.733L420.233 369.6C414.233 362.8 408.1 356.267 406.5 354.933C403.3 352 399.433 352.267 383.7 356.4C377.833 357.867 371.433 359.467 369.433 359.867C364.633 360.933 362.633 365.2 359.833 380C358.5 386.533 356.9 394.267 356.233 396.933L354.9 402H344.367H333.833L332.5 396.933C331.833 394.267 330.233 386.533 328.9 380C326.367 366.4 324.1 361.2 320.767 360.267C300.5 354.933 288.233 352.4 285.567 353.067C283.833 353.6 276.767 360.267 269.967 367.867L257.7 381.867L248.233 376.4C243.033 373.467 239.167 370.267 239.433 369.467C239.7 368.667 242.5 360.4 245.567 351.067C249.7 338.267 250.767 333.467 249.833 331.067C248.367 327.467 226.1 305.333 222.633 304.133C220.767 303.6 197.033 310.267 184.9 314.933C184.1 315.2 180.9 311.2 177.967 306.133L172.5 296.667L186.5 284.4C194.233 277.467 200.767 270.533 201.3 268.8C201.967 266 196.633 240.533 193.7 233.067C192.367 229.733 188.5 228.4 168.367 224.267L153.033 221.067L152.633 210.267C152.233 199.867 152.367 199.333 155.3 198.667C157.033 198.267 165.033 196.533 173.033 194.8C190.367 191.2 193.433 189.867 194.5 184.933C194.9 182.933 196.5 176.8 197.967 171.333C202.1 156.267 202.367 151.067 199.433 147.867C198.1 146.267 191.567 140.133 184.767 134.133L172.633 123.2L177.967 113.867C180.9 108.667 184.1 104.8 184.9 105.067C185.7 105.333 193.967 108.133 203.3 111.2C216.1 115.333 220.9 116.4 223.3 115.467C226.9 114 249.033 91.7333 250.233 88.2667C250.767 86.4 244.1 62.6667 239.433 50.5334C239.167 49.7334 243.167 46.5334 248.233 43.6L257.7 38.1334L269.967 52C276.767 59.7333 283.833 66.5334 285.7 67.0667C288.1 67.8667 292.767 67.2001 302.367 64.5334C309.7 62.5334 317.3 60.5334 319.3 60.1334C324.1 59.0667 326.1 54.8 328.9 40C330.233 33.3333 331.833 25.7333 332.5 22.9333L333.833 18H344.367H354.9L356.233 22.9333ZM369.333 506.533C369.333 519.467 370.533 524.267 375.067 529.2C380.4 534.933 387.6 537.333 400.4 537.333H412L411.733 599.6L411.333 662H341.333H271.333L270.933 580C270.8 534.933 270.933 497.2 271.333 496.267C271.733 495.067 282.933 494.667 320.667 494.667H369.333V506.533Z" fill="black"/>
<path d="M316 2.66675C314.533 4.13341 313.067 6.66678 312.667 8.26678C312.267 10.0001 310.4 18.5334 308.533 27.3334C306.667 36.1334 304.8 43.7334 304.267 44.1334C303.733 44.5334 300.133 45.6001 296.133 46.6667L288.933 48.4001L283.467 42.5334C280.4 39.3334 274.267 32.5334 269.733 27.3334C258.933 15.2001 257.867 15.2001 236 28.0001C226.8 33.3334 218.267 38.5334 217.067 39.7334C213.467 42.8001 214.133 48.5334 220 66.0001C222.933 74.6667 225.333 82.8001 225.333 84.0001C225.333 86.6667 215.867 96.0001 213.2 96.0001C212.133 96.0001 204 93.6001 195.333 90.6667C175.467 84.0001 171.867 83.8668 167.6 89.6001C161.467 97.8668 146.667 125.2 146.667 128.133C146.667 130.933 149.333 133.733 172.533 154.8L177.867 159.6L175.6 167.333C174.4 171.6 173.2 175.2 172.933 175.467C172.667 175.733 165.333 177.467 156.533 179.333C147.867 181.2 139.333 182.933 137.6 183.333C132 184.667 129.333 188.8 129.333 196V202.667H107.467C88.8 202.667 85.3333 202.933 83.8667 204.933C82.2667 206.667 81.8667 230.133 81.3333 340.533L80.6667 474L48 474.667C16.9333 475.333 15.0667 475.467 10.4 478.4C7.6 480.133 4.4 483.733 2.8 487.2C0 492.667 0 494.533 0 578.533C0 659.867 0.133333 664.4 2.53333 669.067C5.6 675.2 8.66667 678 15.0667 680.667C19.2 682.4 30.1333 682.667 91.3333 682.667C168.933 682.667 167.867 682.8 174.933 675.2C180.667 668.933 181.333 665.467 181.333 638.533C181.333 613.467 181.333 613.2 178 610C176.267 608.133 173.867 606.667 172.8 606.667C169.6 606.667 164.267 609.467 163.067 611.867C162.533 613.067 161.733 624.8 161.333 638L160.667 662H90.6667H20.6667V578.667V495.333L69.6 494.933L118.4 494.667L118.933 508.4C119.333 521.2 119.6 522.533 123.2 527.2C128.8 534.667 135.733 537.333 149.733 537.333H161.333V555.333C161.333 572.8 161.467 573.6 164.667 576.667C168.8 580.933 174.533 581.067 178.4 576.933C181.2 574 181.333 572.667 181.333 551.067C181.333 538.4 180.667 526.533 180 524.4C178.267 520.133 138.533 479.467 133.067 476.533C130.533 475.333 125.067 474.667 115.333 474.667H101.333V348.667V222.667H115.333H129.333V228.667C129.333 235.2 132.267 239.333 137.6 240.667C143.333 242 172 248 172.533 248C173.2 248 177.333 261.6 177.333 263.733C177.333 264.533 170.8 271.067 162.667 278.133C152.667 287.067 147.867 292.267 147.333 294.933C146.667 298 148.133 301.6 155.467 314.267C166.4 333.467 169.733 338.133 173.2 339.067C174.667 339.333 183.733 337.067 193.6 333.867C203.333 330.667 212.133 328 213.2 328C215.6 328 225.333 337.867 225.333 340.267C225.333 341.333 222.933 349.333 220 358C213.333 377.867 213.2 381.467 219.067 385.733C227.733 392.133 254.4 406.667 257.333 406.667C260.267 406.667 262.667 404.4 284.133 380.8L288.933 375.467L296.667 377.733C300.933 378.933 304.533 380.133 304.8 380.267C305.067 380.533 306.667 388 308.533 396.667C310.4 405.467 312.267 414 312.667 415.733C314 421.067 318.133 424 324.667 424H330.667V449.333V474.667H299.067C268.667 474.667 267.067 474.8 262.133 477.733C258.8 479.6 255.733 482.933 253.733 486.533L250.667 492.4V578.267C250.667 647.333 251.067 664.933 252.533 668.4C254.8 674.133 262.933 681.067 268.267 682C270.667 682.4 305.2 682.667 344.933 682.4L417.067 682L422.267 677.867C432.4 669.733 432 672.933 432 596.4C432 552.133 431.467 526.8 430.667 524.4C428.933 520.133 389.2 479.467 383.733 476.533C381.2 475.333 375.733 474.667 366 474.667H352V449.333V424H358C364.533 424 368.667 421.067 370 415.733C370.4 414 372.267 405.467 374.133 396.667C376 388 377.6 380.533 377.867 380.267C378.133 380.133 381.733 378.933 386 377.733L393.733 375.467L398.533 380.8C420 404.533 422.267 406.667 425.333 406.667C428.4 406.667 454.933 392.133 463.733 385.733C469.467 381.467 469.333 377.867 462.667 358C459.733 349.333 457.333 341.333 457.333 340.267C457.333 337.867 467.067 328 469.467 328C470.533 328 479.333 330.667 489.067 333.867C498.933 337.067 508 339.333 509.467 339.067C512.933 338.133 516.267 333.467 527.2 314.267C534.533 301.6 536 298 535.333 294.933C534.8 292.267 530 287.067 520 278.133C511.867 271.067 505.333 264.533 505.333 263.733C505.333 262 509.333 248 509.867 248C512.267 248 544.267 240.933 547.067 239.867C551.733 237.867 553.333 234.933 553.333 228.133V222.667H567.333H581.333V348.667V474.533L548.4 474.933C516.267 475.333 515.2 475.467 510.933 478.4C502.4 484.533 501.333 488.8 501.333 518C501.333 542.267 501.467 544.133 504 546.667C508 550.667 515.067 550.267 518.533 545.867C521.067 542.533 521.333 540.533 521.333 518.533V494.667H570.667H620V507.333C620 521.2 621.2 524.933 627.6 531.067C632.8 535.867 638.267 537.333 651.733 537.333H662.667L662.4 599.733L662 662H592H522L521.333 622.533C520.667 586 520.533 582.667 518.133 580.133C514.8 576.533 507.6 576.4 504 580C501.467 582.533 501.333 584.4 501.333 623.2C501.333 648.667 501.867 665.2 502.8 667.6C504.667 672.667 510.4 678.667 515.6 680.8C522.4 683.733 660.667 683.467 667.6 680.667C674.267 677.867 677.2 675.067 680.133 668.667C682.4 663.733 682.667 658.533 682.667 595.6C682.667 531.467 682.533 527.6 680.133 522.933C676.667 516.4 636.267 476.4 632 475.467C630.133 475.067 622.667 474.533 615.333 474.267L602 474L601.333 340.533C600.8 230.133 600.4 206.667 598.8 204.933C597.333 202.933 593.867 202.667 575.2 202.667H553.333V196.533C553.333 185.333 552.133 184.667 526.8 179.333C517.6 177.467 510 175.733 509.733 175.467C509.467 175.2 508.267 171.6 507.067 167.333L504.8 159.6L510.133 154.8C512.933 152.133 519.867 146 525.333 141.2C538.267 129.6 538.267 128.8 525.467 106.667C520.133 97.4667 514.8 88.9334 513.733 87.6001C510.533 84.1334 504.8 84.8001 487.333 90.6667C478.667 93.6001 470.533 96.0001 469.333 96.0001C466.667 96.0001 457.333 86.5334 457.333 83.8668C457.333 82.8001 459.733 74.6667 462.667 66.0001C468.533 48.5334 469.2 42.8001 465.733 39.6001C464.4 38.5334 455.867 33.2001 446.667 27.8668C424.667 15.2001 423.733 15.2001 412.933 27.3334C408.4 32.5334 402.267 39.3334 399.2 42.5334L393.733 48.4001L386.533 46.6667C382.533 45.6001 378.933 44.5334 378.4 44.1334C377.867 43.7334 376 36.1334 374.133 27.3334C372.267 18.5334 370.4 10.0001 370 8.26678C369.6 6.66678 368.133 4.13341 366.667 2.66675C364.267 0.266748 362.133 6.10352e-05 341.333 6.10352e-05C320.533 6.10352e-05 318.4 0.266748 316 2.66675ZM356.233 22.9333C356.9 25.7333 358.5 33.3333 359.833 40C362.633 54.8 364.633 59.0667 369.433 60.1334C371.433 60.5334 379.033 62.5334 386.367 64.5334C395.967 67.2001 400.633 67.8667 403.033 67.0667C404.9 66.5334 411.967 59.7333 418.767 52L431.033 38.1334L440.5 43.6C445.567 46.5334 449.567 49.7334 449.3 50.5334C444.633 62.6667 437.967 86.4 438.5 88.2667C439.7 91.7333 461.833 114 465.433 115.467C467.833 116.4 472.633 115.333 485.433 111.2C494.767 108.133 503.033 105.333 503.833 105.067C504.633 104.8 507.833 108.667 510.767 113.867L516.1 123.2L503.967 134.133C497.167 140.133 490.633 146.267 489.3 147.867C486.367 151.067 486.633 156.267 490.767 171.333C492.233 176.8 493.833 182.933 494.233 184.933C495.3 189.733 499.567 191.733 514.367 194.533C521.033 195.867 528.633 197.467 531.433 198.133L536.5 199.467L536.1 210.267L535.7 221.2L518.233 224.8C498.1 228.933 495.433 230.133 494.233 235.067C493.833 237.067 492.233 243.2 490.767 248.667C487.033 262.533 486.633 265.467 487.567 268.933C487.967 270.667 494.633 277.6 502.233 284.4L516.233 296.667L510.767 306.133C507.833 311.2 504.633 315.2 503.833 314.933C491.7 310.267 467.967 303.6 466.1 304.133C462.633 305.333 440.367 327.467 438.9 331.067C437.967 333.467 439.033 338.267 443.167 351.067C446.233 360.4 449.033 368.667 449.3 369.467C449.567 370.267 445.7 373.467 440.5 376.4L431.167 381.733L420.233 369.6C414.233 362.8 408.1 356.267 406.5 354.933C403.3 352 399.433 352.267 383.7 356.4C377.833 357.867 371.433 359.467 369.433 359.867C364.633 360.933 362.633 365.2 359.833 380C358.5 386.533 356.9 394.267 356.233 396.933L354.9 402H344.367H333.833L332.5 396.933C331.833 394.267 330.233 386.533 328.9 380C326.367 366.4 324.1 361.2 320.767 360.267C300.5 354.933 288.233 352.4 285.567 353.067C283.833 353.6 276.767 360.267 269.967 367.867L257.7 381.867L248.233 376.4C243.033 373.467 239.167 370.267 239.433 369.467C239.7 368.667 242.5 360.4 245.567 351.067C249.7 338.267 250.767 333.467 249.833 331.067C248.367 327.467 226.1 305.333 222.633 304.133C220.767 303.6 197.033 310.267 184.9 314.933C184.1 315.2 180.9 311.2 177.967 306.133L172.5 296.667L186.5 284.4C194.233 277.467 200.767 270.533 201.3 268.8C201.967 266 196.633 240.533 193.7 233.067C192.367 229.733 188.5 228.4 168.367 224.267L153.033 221.067L152.633 210.267C152.233 199.867 152.367 199.333 155.3 198.667C157.033 198.267 165.033 196.533 173.033 194.8C190.367 191.2 193.433 189.867 194.5 184.933C194.9 182.933 196.5 176.8 197.967 171.333C202.1 156.267 202.367 151.067 199.433 147.867C198.1 146.267 191.567 140.133 184.767 134.133L172.633 123.2L177.967 113.867C180.9 108.667 184.1 104.8 184.9 105.067C185.7 105.333 193.967 108.133 203.3 111.2C216.1 115.333 220.9 116.4 223.3 115.467C226.9 114 249.033 91.7333 250.233 88.2667C250.767 86.4 244.1 62.6667 239.433 50.5334C239.167 49.7334 243.167 46.5334 248.233 43.6L257.7 38.1334L269.967 52C276.767 59.7333 283.833 66.5334 285.7 67.0667C288.1 67.8667 292.767 67.2001 302.367 64.5334C309.7 62.5334 317.3 60.5334 319.3 60.1334C324.1 59.0667 326.1 54.8 328.9 40C330.233 33.3333 331.833 25.7333 332.5 22.9333L333.833 18H344.367H354.9L356.233 22.9333ZM369.333 506.533C369.333 519.467 370.533 524.267 375.067 529.2C380.4 534.933 387.6 537.333 400.4 537.333H412L411.733 599.6L411.333 662H341.333H271.333L270.933 580C270.8 534.933 270.933 497.2 271.333 496.267C271.733 495.067 282.933 494.667 320.667 494.667H369.333V506.533Z" fill="black" fill-opacity="0.2"/>
<path d="M356.233 22.9333C356.9 25.7333 358.5 33.3333 359.833 40C362.633 54.8 364.633 59.0667 369.433 60.1334C371.433 60.5334 379.033 62.5334 386.367 64.5334C395.967 67.2001 400.633 67.8667 403.033 67.0667C404.9 66.5334 411.967 59.7333 418.767 52L431.033 38.1334L440.5 43.6C445.567 46.5334 449.567 49.7334 449.3 50.5334C444.633 62.6667 437.967 86.4 438.5 88.2667C439.7 91.7333 461.833 114 465.433 115.467C467.833 116.4 472.633 115.333 485.433 111.2C494.767 108.133 503.033 105.333 503.833 105.067C504.633 104.8 507.833 108.667 510.767 113.867L516.1 123.2L503.967 134.133C497.167 140.133 490.633 146.267 489.3 147.867C486.367 151.067 486.633 156.267 490.767 171.333C492.233 176.8 493.833 182.933 494.233 184.933C495.3 189.733 499.567 191.733 514.367 194.533C521.033 195.867 528.633 197.467 531.433 198.133L536.5 199.467L536.1 210.267L535.7 221.2L518.233 224.8C498.1 228.933 495.433 230.133 494.233 235.067C493.833 237.067 492.233 243.2 490.767 248.667C487.033 262.533 486.633 265.467 487.567 268.933C487.967 270.667 494.633 277.6 502.233 284.4L516.233 296.667L510.767 306.133C507.833 311.2 504.633 315.2 503.833 314.933C491.7 310.267 467.967 303.6 466.1 304.133C462.633 305.333 440.367 327.467 438.9 331.067C437.967 333.467 439.033 338.267 443.167 351.067C446.233 360.4 449.033 368.667 449.3 369.467C449.567 370.267 445.7 373.467 440.5 376.4L431.167 381.733L420.233 369.6C414.233 362.8 408.1 356.267 406.5 354.933C403.3 352 399.433 352.267 383.7 356.4C377.833 357.867 371.433 359.467 369.433 359.867C364.633 360.933 362.633 365.2 359.833 380C358.5 386.533 356.9 394.267 356.233 396.933L354.9 402H344.367H333.833L332.5 396.933C331.833 394.267 330.233 386.533 328.9 380C326.367 366.4 324.1 361.2 320.767 360.267C300.5 354.933 288.233 352.4 285.567 353.067C283.833 353.6 276.767 360.267 269.967 367.867L257.7 381.867L248.233 376.4C243.033 373.467 239.167 370.267 239.433 369.467C239.7 368.667 242.5 360.4 245.567 351.067C249.7 338.267 250.767 333.467 249.833 331.067C248.367 327.467 226.1 305.333 222.633 304.133C220.767 303.6 197.033 310.267 184.9 314.933C184.1 315.2 180.9 311.2 177.967 306.133L172.5 296.667L186.5 284.4C194.233 277.467 200.767 270.533 201.3 268.8C201.967 266 196.633 240.533 193.7 233.067C192.367 229.733 188.5 228.4 168.367 224.267L153.033 221.067L152.633 210.267C152.233 199.867 152.367 199.333 155.3 198.667C157.033 198.267 165.033 196.533 173.033 194.8C190.367 191.2 193.433 189.867 194.5 184.933C194.9 182.933 196.5 176.8 197.967 171.333C202.1 156.267 202.367 151.067 199.433 147.867C198.1 146.267 191.567 140.133 184.767 134.133L172.633 123.2L177.967 113.867C180.9 108.667 184.1 104.8 184.9 105.067C185.7 105.333 193.967 108.133 203.3 111.2C216.1 115.333 220.9 116.4 223.3 115.467C226.9 114 249.033 91.7333 250.233 88.2667C250.767 86.4 244.1 62.6667 239.433 50.5334C239.167 49.7334 243.167 46.5334 248.233 43.6L257.7 38.1334L269.967 52C276.767 59.7333 283.833 66.5334 285.7 67.0667C288.1 67.8667 292.767 67.2001 302.367 64.5334C309.7 62.5334 317.3 60.5334 319.3 60.1334C324.1 59.0667 326.1 54.8 328.9 40C330.233 33.3333 331.833 25.7333 332.5 22.9333L333.833 18H344.367H354.9L356.233 22.9333Z" fill="#FFB600"/>
<path d="M296.4 520.8C293.733 523.467 293.2 524.933 293.867 528.4C295.333 536.4 298 537.333 319.333 537.333C336.533 537.333 338.667 537.067 341.867 534.533C346.267 531.067 346.667 524 342.667 520C340.267 517.6 338.267 517.333 320 517.333C300.133 517.333 299.867 517.333 296.4 520.8Z" fill="black"/>
<path d="M299.2 561.6C296.267 562.933 293.333 567.867 293.333 571.467C293.333 572.533 294.8 574.933 296.667 576.667L299.867 580H341.333H382.8L386 576.667C387.867 574.933 389.333 572.533 389.333 571.467C389.333 567.733 386.4 562.933 383.067 561.467C378.8 559.467 303.2 559.6 299.2 561.6Z" fill="black"/>
<path d="M296.133 607.467C292.533 612.133 292.667 615.067 296.533 619.6L299.733 623.333H341.333H382.933L386.133 619.6C390 615.067 390.133 612.133 386.533 607.467L383.867 604H341.333H298.8L296.133 607.467Z" fill="black"/>
<path d="M47.6 518.8C41.4667 522.4 42.1333 532.8 48.8 535.867C53.2 537.867 85.4667 537.867 89.8667 535.867C94.4 533.733 96.1333 528.267 94 523.067C93.0667 520.933 91.3333 518.667 90 518.133C86.2667 516.8 50.2667 517.333 47.6 518.8Z" fill="black"/>
<path d="M547.333 520.667C545.467 522.4 544 525.467 544 527.333C544 529.2 545.467 532.267 547.333 534C550.4 537.2 551.2 537.333 569.733 537.333C587.2 537.333 589.333 537.067 592.533 534.533C597.067 530.933 597.333 524.267 592.933 520.267C590 517.467 588.533 517.333 570.133 517.333C551.067 517.333 550.4 517.467 547.333 520.667Z" fill="black"/>
<path d="M48.4 561.6C42 564.667 41.6 575.333 47.8667 578.533C49.6 579.467 65.2 580 91.8667 580H133.2L135.867 576.533C139.333 572.133 139.467 567.867 136.133 563.867L133.6 560.667L92.4 560.4C65.3333 560.267 50.4 560.667 48.4 561.6Z" fill="black"/>
<path d="M549.733 561.333C543.733 563.733 542.4 570.933 546.8 576.533L549.467 580H590.8C617.467 580 633.067 579.467 634.8 578.533C641.2 575.2 640.667 564.533 633.867 561.467C629.867 559.733 554.267 559.6 549.733 561.333Z" fill="black"/>
<path d="M46.2667 606.267C42.4 610.667 42.1333 615.333 45.7333 619.467L49.0667 623.333H90.6667H132.267L135.467 619.6C139.333 615.067 139.467 612.133 135.867 607.467L133.2 604H90.8C52.1333 604 48.2667 604.267 46.2667 606.267Z" fill="black"/>
<path d="M546.8 607.467C543.6 611.6 543.333 613.2 545.6 618C548.133 623.6 553.333 624.267 595.067 623.733L633.6 623.333L636.933 619.467C640.533 615.333 640.267 610.667 636.4 606.267C634.4 604.267 630.533 604 591.867 604H549.467L546.8 607.467Z" fill="black"/>
<path d="M314.667 86.5333C264.667 97.4666 226.133 136.4 215.733 186.667C213.6 196.8 213.2 202.667 213.733 216.667C214.533 238 217.6 250.4 226.533 268.667C239.2 294.267 259.067 314.133 284.667 326.667C305.733 337.067 315.2 339.2 341.333 339.2C367.6 339.2 377.2 337.067 398 326.8C423.733 314 443.467 294.267 456 268.667C466.4 247.6 468.533 238.133 468.533 212C468.533 185.867 466.4 176.533 456.133 155.2C442.667 127.867 424.933 110 398.267 97.2C378.4 87.8666 367.2 85.2 344.667 84.5333C330 84.1333 323.6 84.5333 314.667 86.5333ZM366.667 106.667C372.933 108.133 383.733 112.267 390.667 115.6C411.467 125.867 430.133 145.6 440.267 167.733C454.267 198.4 451.867 239.6 434.4 267.733L431.6 272.4L428.533 266.533C422 253.733 408.8 242.267 395.467 237.867C391.733 236.667 388.533 235.467 388.267 235.333C388.133 235.2 390.533 231.2 393.733 226.533C411.333 200.133 408 166.4 385.467 144.933C359.467 120.133 320 120.933 295.6 146.533C274.4 168.667 271.733 200.667 288.667 226.133C292 231.067 294.533 235.2 294.4 235.333C294.133 235.467 290.933 236.667 287.2 237.867C273.867 242.267 260.667 253.733 254.133 266.533L251.067 272.4L248.267 267.733C230.8 239.467 228.4 198.533 242.533 167.467C253.067 144.133 273.467 123.733 296.933 113.067C317.2 103.867 344.4 101.467 366.667 106.667ZM358.933 150.267C367.733 154.267 376.667 162.933 380.933 171.867C383.867 178 384.533 181.2 384.533 190C384.667 199.467 384.133 201.733 380.267 209.6C372.533 225.333 358.933 233.867 341.333 233.867C323.733 233.867 310.133 225.333 302.4 209.6C298.533 201.733 298 199.6 298.133 190C298.267 174 305.333 161.2 318.267 153.2C329.6 146.133 346.667 144.933 358.933 150.267ZM393.067 258.8C404.4 264.4 411.867 273.867 414 285.733C415.2 292 413.6 294.133 400.4 302.667C364.8 326.133 317.867 326.133 282.267 302.667C269.067 294.133 267.467 292 268.667 285.733C270.8 273.867 278.267 264.4 289.6 258.8L297.733 254.667H341.333H384.933L393.067 258.8Z" fill="black"/>
<path d="M366.667 106.667C372.933 108.133 383.733 112.267 390.667 115.6C411.467 125.867 430.133 145.6 440.267 167.733C454.267 198.4 451.867 239.6 434.4 267.733L431.6 272.4L428.533 266.533C422 253.733 408.8 242.267 395.467 237.867C391.733 236.667 388.533 235.467 388.267 235.333C388.133 235.2 390.533 231.2 393.733 226.533C411.333 200.133 408 166.4 385.467 144.933C359.467 120.133 320 120.933 295.6 146.533C274.4 168.667 271.733 200.667 288.667 226.133C292 231.067 294.533 235.2 294.4 235.333C294.133 235.467 290.933 236.667 287.2 237.867C273.867 242.267 260.667 253.733 254.133 266.533L251.067 272.4L248.267 267.733C230.8 239.467 228.4 198.533 242.533 167.467C253.067 144.133 273.467 123.733 296.933 113.067C317.2 103.867 344.4 101.467 366.667 106.667Z" fill="white"/>
<path d="M393.067 258.8C404.4 264.4 411.867 273.867 414 285.733C415.2 292 413.6 294.133 400.4 302.667C364.8 326.133 317.867 326.133 282.267 302.667C269.067 294.133 267.467 292 268.667 285.733C270.8 273.867 278.267 264.4 289.6 258.8L297.733 254.667H341.333H384.933L393.067 258.8Z" fill="white"/>
<path d="M358.933 150.267C367.733 154.267 376.667 162.933 380.933 171.867C383.867 178 384.533 181.2 384.533 190C384.667 199.467 384.133 201.733 380.267 209.6C372.533 225.333 358.933 233.867 341.333 233.867C323.733 233.867 310.133 225.333 302.4 209.6C298.533 201.733 298 199.6 298.133 190C298.267 174 305.333 161.2 318.267 153.2C329.6 146.133 346.667 144.933 358.933 150.267Z" fill="#FEFEFE"/>
</g>
<defs>
<clipPath id="clip0_0_1">
<rect width="682.667" height="682.667" fill="white"/>
</clipPath>
</defs>
</svg>
